<mxfile host="app.diagrams.net" agent="Mozilla/5.0 (Macintosh; Intel Mac OS X 10_15_7) AppleWebKit/537.36 (KHTML, like Gecko) Chrome/140.0.0.0 Safari/537.36 Edg/140.0.0.0" version="28.2.3">
  <diagram name="第 1 页" id="sTPRcyZA95BXSPAmLd2O">
    <mxGraphModel dx="994" dy="567" grid="1" gridSize="10" guides="1" tooltips="1" connect="1" arrows="1" fold="1" page="1" pageScale="1" pageWidth="1169" pageHeight="827" math="0" shadow="0">
      <root>
        <mxCell id="0" />
        <mxCell id="1" parent="0" />
        <mxCell id="Lzzs6xFlXi0JpiSJ5ja--1" style="edgeStyle=none;html=1;" edge="1" parent="1" source="Lzzs6xFlXi0JpiSJ5ja--2" target="Lzzs6xFlXi0JpiSJ5ja--4">
          <mxGeometry relative="1" as="geometry" />
        </mxCell>
        <mxCell id="Lzzs6xFlXi0JpiSJ5ja--2" value="new" style="ellipse;whiteSpace=wrap;html=1;fontSize=16;" vertex="1" parent="1">
          <mxGeometry x="210" y="40" width="120" height="80" as="geometry" />
        </mxCell>
        <mxCell id="Lzzs6xFlXi0JpiSJ5ja--3" value="" style="edgeStyle=none;html=1;exitX=1;exitY=0.5;exitDx=0;exitDy=0;" edge="1" parent="1" source="Lzzs6xFlXi0JpiSJ5ja--4" target="Lzzs6xFlXi0JpiSJ5ja--10">
          <mxGeometry relative="1" as="geometry" />
        </mxCell>
        <mxCell id="Lzzs6xFlXi0JpiSJ5ja--4" value="&lt;font style=&quot;font-size: 16px&quot;&gt;Runnable&lt;/font&gt;" style="ellipse;whiteSpace=wrap;html=1;" vertex="1" parent="1">
          <mxGeometry x="210" y="240" width="120" height="80" as="geometry" />
        </mxCell>
        <mxCell id="Lzzs6xFlXi0JpiSJ5ja--5" style="edgeStyle=none;html=1;" edge="1" parent="1" source="Lzzs6xFlXi0JpiSJ5ja--10" target="Lzzs6xFlXi0JpiSJ5ja--11">
          <mxGeometry relative="1" as="geometry" />
        </mxCell>
        <mxCell id="Lzzs6xFlXi0JpiSJ5ja--6" style="edgeStyle=none;html=1;exitX=0.5;exitY=0;exitDx=0;exitDy=0;entryX=0.5;entryY=1;entryDx=0;entryDy=0;" edge="1" parent="1" source="Lzzs6xFlXi0JpiSJ5ja--10" target="Lzzs6xFlXi0JpiSJ5ja--13">
          <mxGeometry relative="1" as="geometry" />
        </mxCell>
        <mxCell id="Lzzs6xFlXi0JpiSJ5ja--7" style="edgeStyle=none;html=1;exitX=0;exitY=1;exitDx=0;exitDy=0;entryX=1;entryY=1;entryDx=0;entryDy=0;" edge="1" parent="1" source="Lzzs6xFlXi0JpiSJ5ja--10" target="Lzzs6xFlXi0JpiSJ5ja--4">
          <mxGeometry relative="1" as="geometry" />
        </mxCell>
        <mxCell id="Lzzs6xFlXi0JpiSJ5ja--8" style="edgeStyle=none;html=1;exitX=0;exitY=1;exitDx=0;exitDy=0;entryX=0.5;entryY=0;entryDx=0;entryDy=0;" edge="1" parent="1" source="Lzzs6xFlXi0JpiSJ5ja--10" target="Lzzs6xFlXi0JpiSJ5ja--15">
          <mxGeometry relative="1" as="geometry" />
        </mxCell>
        <mxCell id="Lzzs6xFlXi0JpiSJ5ja--9" style="edgeStyle=none;html=1;exitX=1;exitY=1;exitDx=0;exitDy=0;entryX=0.5;entryY=0;entryDx=0;entryDy=0;" edge="1" parent="1" source="Lzzs6xFlXi0JpiSJ5ja--10" target="Lzzs6xFlXi0JpiSJ5ja--17">
          <mxGeometry relative="1" as="geometry" />
        </mxCell>
        <mxCell id="Lzzs6xFlXi0JpiSJ5ja--10" value="&lt;font style=&quot;font-size: 16px&quot;&gt;Running&lt;/font&gt;" style="ellipse;whiteSpace=wrap;html=1;" vertex="1" parent="1">
          <mxGeometry x="440" y="240" width="120" height="80" as="geometry" />
        </mxCell>
        <mxCell id="Lzzs6xFlXi0JpiSJ5ja--11" value="Dead" style="ellipse;whiteSpace=wrap;html=1;fontSize=16;" vertex="1" parent="1">
          <mxGeometry x="680" y="240" width="120" height="80" as="geometry" />
        </mxCell>
        <mxCell id="Lzzs6xFlXi0JpiSJ5ja--12" style="edgeStyle=none;html=1;exitX=0;exitY=0.5;exitDx=0;exitDy=0;entryX=1;entryY=0;entryDx=0;entryDy=0;" edge="1" parent="1" source="Lzzs6xFlXi0JpiSJ5ja--13" target="Lzzs6xFlXi0JpiSJ5ja--4">
          <mxGeometry relative="1" as="geometry" />
        </mxCell>
        <mxCell id="Lzzs6xFlXi0JpiSJ5ja--13" value="Blocked" style="ellipse;whiteSpace=wrap;html=1;fontSize=16;" vertex="1" parent="1">
          <mxGeometry x="440" y="40" width="120" height="80" as="geometry" />
        </mxCell>
        <mxCell id="Lzzs6xFlXi0JpiSJ5ja--14" style="edgeStyle=none;html=1;exitX=1;exitY=0.5;exitDx=0;exitDy=0;entryX=0;entryY=0.5;entryDx=0;entryDy=0;" edge="1" parent="1" source="Lzzs6xFlXi0JpiSJ5ja--15" target="Lzzs6xFlXi0JpiSJ5ja--17">
          <mxGeometry relative="1" as="geometry" />
        </mxCell>
        <mxCell id="Lzzs6xFlXi0JpiSJ5ja--15" value="Blocked" style="ellipse;whiteSpace=wrap;html=1;fontSize=16;" vertex="1" parent="1">
          <mxGeometry x="320" y="420" width="120" height="80" as="geometry" />
        </mxCell>
        <mxCell id="Lzzs6xFlXi0JpiSJ5ja--16" style="edgeStyle=none;html=1;exitX=0.5;exitY=1;exitDx=0;exitDy=0;entryX=0.5;entryY=1;entryDx=0;entryDy=0;rounded=0;" edge="1" parent="1" source="Lzzs6xFlXi0JpiSJ5ja--17" target="Lzzs6xFlXi0JpiSJ5ja--4">
          <mxGeometry relative="1" as="geometry">
            <Array as="points">
              <mxPoint x="620" y="520" />
              <mxPoint x="440" y="520" />
              <mxPoint x="270" y="520" />
            </Array>
          </mxGeometry>
        </mxCell>
        <mxCell id="Lzzs6xFlXi0JpiSJ5ja--17" value="Blocked" style="ellipse;whiteSpace=wrap;html=1;fontSize=16;" vertex="1" parent="1">
          <mxGeometry x="560" y="420" width="120" height="80" as="geometry" />
        </mxCell>
        <mxCell id="Lzzs6xFlXi0JpiSJ5ja--18" value="获取cpu" style="text;html=1;strokeColor=none;fillColor=none;align=center;verticalAlign=middle;whiteSpace=wrap;rounded=0;" vertex="1" parent="1">
          <mxGeometry x="350" y="250" width="60" height="30" as="geometry" />
        </mxCell>
        <mxCell id="Lzzs6xFlXi0JpiSJ5ja--19" value="yield()" style="text;html=1;strokeColor=none;fillColor=none;align=center;verticalAlign=middle;whiteSpace=wrap;rounded=0;" vertex="1" parent="1">
          <mxGeometry x="350" y="310" width="60" height="30" as="geometry" />
        </mxCell>
        <mxCell id="Lzzs6xFlXi0JpiSJ5ja--20" value="sleep()、join()" style="text;html=1;strokeColor=none;fillColor=none;align=center;verticalAlign=middle;whiteSpace=wrap;rounded=0;" vertex="1" parent="1">
          <mxGeometry x="500" y="170" width="100" height="30" as="geometry" />
        </mxCell>
        <mxCell id="Lzzs6xFlXi0JpiSJ5ja--21" value="start()" style="text;html=1;strokeColor=none;fillColor=none;align=center;verticalAlign=middle;whiteSpace=wrap;rounded=0;" vertex="1" parent="1">
          <mxGeometry x="210" y="170" width="60" height="30" as="geometry" />
        </mxCell>
        <mxCell id="Lzzs6xFlXi0JpiSJ5ja--22" value="IO完成&lt;br&gt;join()结束&lt;br&gt;sleep()结束" style="text;html=1;strokeColor=none;fillColor=none;align=center;verticalAlign=middle;whiteSpace=wrap;rounded=0;" vertex="1" parent="1">
          <mxGeometry x="360" y="140" width="90" height="70" as="geometry" />
        </mxCell>
        <mxCell id="Lzzs6xFlXi0JpiSJ5ja--23" value="wait()" style="text;html=1;strokeColor=none;fillColor=none;align=center;verticalAlign=middle;whiteSpace=wrap;rounded=0;" vertex="1" parent="1">
          <mxGeometry x="420" y="350" width="60" height="30" as="geometry" />
        </mxCell>
        <mxCell id="Lzzs6xFlXi0JpiSJ5ja--24" value="synchronized" style="text;html=1;strokeColor=none;fillColor=none;align=center;verticalAlign=middle;whiteSpace=wrap;rounded=0;" vertex="1" parent="1">
          <mxGeometry x="590" y="350" width="90" height="30" as="geometry" />
        </mxCell>
        <mxCell id="Lzzs6xFlXi0JpiSJ5ja--25" value="notify() &lt;br&gt;/&lt;br&gt;notifyAll()" style="text;html=1;strokeColor=none;fillColor=none;align=center;verticalAlign=middle;whiteSpace=wrap;rounded=0;" vertex="1" parent="1">
          <mxGeometry x="470" y="410" width="60" height="50" as="geometry" />
        </mxCell>
        <mxCell id="Lzzs6xFlXi0JpiSJ5ja--26" value="interrupt()" style="text;html=1;strokeColor=none;fillColor=none;align=center;verticalAlign=middle;whiteSpace=wrap;rounded=0;" vertex="1" parent="1">
          <mxGeometry x="470" y="460" width="60" height="30" as="geometry" />
        </mxCell>
        <mxCell id="Lzzs6xFlXi0JpiSJ5ja--27" value="正常结束/异常退出" style="text;html=1;strokeColor=none;fillColor=none;align=center;verticalAlign=middle;whiteSpace=wrap;rounded=0;" vertex="1" parent="1">
          <mxGeometry x="575" y="250" width="90" height="30" as="geometry" />
        </mxCell>
        <mxCell id="Lzzs6xFlXi0JpiSJ5ja--28" value="获取到同步锁" style="text;html=1;strokeColor=none;fillColor=none;align=center;verticalAlign=middle;whiteSpace=wrap;rounded=0;" vertex="1" parent="1">
          <mxGeometry x="405" y="520" width="90" height="30" as="geometry" />
        </mxCell>
      </root>
    </mxGraphModel>
  </diagram>
</mxfile>
